<svg width="603" height="182" viewBox="0 0 603 182" fill="none" xmlns="http://www.w3.org/2000/svg">
<path d="M374.006 142.184C339.007 167.981 288.277 181.745 244.6 181.745C183.358 181.745 128.224 159.094 86.5126 121.42C83.2355 118.458 86.1717 114.42 90.1043 116.727C135.119 142.918 190.777 158.674 248.27 158.674C287.045 158.674 329.7 150.652 368.92 134.004C374.845 131.488 379.8 137.884 374.006 142.184Z" fill="#FF9900"/>
<path d="M388.557 125.536C384.1 119.821 358.984 122.836 347.711 124.173C344.277 124.593 343.752 121.604 346.846 119.454C366.849 105.376 399.673 109.439 403.5 114.158C407.328 118.903 402.504 151.806 383.707 167.509C380.823 169.921 378.07 168.637 379.355 165.438C383.576 154.899 393.04 131.278 388.557 125.536Z" fill="#FF9900"/>
<path d="M348.487 20.1458V6.46062C348.487 4.38949 350.06 3 351.947 3H413.216C415.182 3 416.756 4.41571 416.756 6.46062V18.1796C416.729 20.1458 415.078 22.7151 412.141 26.7787L380.393 72.1076C392.19 71.8192 404.643 73.5757 415.34 79.6056C417.752 80.9689 418.407 82.9614 418.591 84.9276V99.5304C418.591 101.523 416.388 103.856 414.081 102.65C395.231 92.7665 370.194 91.6916 349.352 102.755C347.228 103.909 345 101.602 345 99.6091V85.7404C345 83.5119 345.026 79.7105 347.255 76.3285L384.037 23.5802H352.026C350.06 23.5802 348.487 22.1907 348.487 20.1458Z" fill="white"/>
<path d="M124.999 105.454H106.359C104.576 105.323 103.16 103.986 103.029 102.282V6.61676C103.029 4.70293 104.628 3.18234 106.621 3.18234H124.003C125.812 3.26094 127.254 4.65048 127.385 6.38079V18.8862H127.725C132.261 6.80026 140.781 1.16364 152.264 1.16364C163.931 1.16364 171.219 6.80026 176.463 18.8862C180.972 6.80026 191.223 1.16364 202.207 1.16364C210.02 1.16364 218.567 4.38831 223.784 11.6242C229.683 19.6727 228.477 31.3654 228.477 41.6162L228.451 101.994C228.451 103.907 226.851 105.454 224.859 105.454H206.245C204.384 105.323 202.889 103.829 202.889 101.994V51.2902C202.889 47.2529 203.256 37.1856 202.365 33.3579C200.975 26.9348 196.807 25.1258 191.406 25.1258C186.897 25.1258 182.178 28.1408 180.264 32.9647C178.35 37.7886 178.534 45.8633 178.534 51.2902V101.994C178.534 103.907 176.934 105.454 174.942 105.454H156.328C154.44 105.323 152.972 103.829 152.972 101.994L152.946 51.2902C152.946 40.62 154.703 24.9161 141.463 24.9161C128.066 24.9161 128.591 40.2267 128.591 51.2902V101.994C128.591 103.907 126.991 105.454 124.999 105.454Z" fill="white"/>
<path d="M469.514 1.16364C497.173 1.16364 512.143 24.9161 512.143 55.1179C512.143 84.2972 495.6 107.447 469.514 107.447C442.354 107.447 427.567 83.6943 427.567 54.0955C427.567 24.3131 442.537 1.16364 469.514 1.16364ZM469.672 20.6952C455.934 20.6952 455.069 39.414 455.069 51.0805C455.069 62.7732 454.885 87.7317 469.514 87.7317C483.96 87.7317 484.641 67.5971 484.641 55.3276C484.641 47.2529 484.301 37.6051 481.862 29.9497C479.765 23.2907 475.597 20.6952 469.672 20.6952Z" fill="white"/>
<path d="M548.008 105.454H529.446C527.585 105.323 526.09 103.829 526.09 101.994L526.064 6.30214C526.222 4.54561 527.768 3.18234 529.656 3.18234H546.933C548.558 3.26094 549.895 4.3621 550.262 5.85646V20.4855H550.603C555.82 7.40325 563.135 1.16364 576.007 1.16364C584.37 1.16364 592.524 4.17858 597.767 12.4369C602.644 20.0922 602.644 32.9647 602.644 42.2192V102.439C602.434 104.117 600.887 105.454 599.052 105.454H580.359C578.655 105.323 577.239 104.065 577.056 102.439V50.4775C577.056 40.017 578.262 24.7064 565.389 24.7064C560.854 24.7064 556.685 27.7475 554.614 32.3617C551.993 38.208 551.652 44.0282 551.652 50.4775V101.994C551.626 103.907 550 105.454 548.008 105.454Z" fill="white"/>
<path d="M301.924 59.5122V55.4748C288.449 55.4748 274.213 58.3587 274.213 74.2461C274.213 82.2947 278.382 87.7478 285.539 87.7478C290.782 87.7478 295.475 84.5231 298.437 79.2797C302.108 72.8304 301.924 66.7743 301.924 59.5122ZM320.722 104.946C319.49 106.047 317.707 106.126 316.317 105.392C310.13 100.253 309.029 97.8675 305.621 92.9649C295.396 103.399 288.16 106.519 274.895 106.519C259.217 106.519 247 96.845 247 77.4708C247 62.3437 255.206 52.0404 266.872 47.0068C276.992 42.5499 291.123 41.7634 301.924 40.5312V38.1193C301.924 33.6886 302.265 28.4453 299.67 24.6176C297.389 21.1832 293.037 19.7675 289.209 19.7675C282.104 19.7675 275.76 23.4116 274.213 30.9621C273.898 32.64 272.666 34.2916 270.988 34.3703L252.899 32.4302C251.378 32.0894 249.7 30.8572 250.12 28.5239C254.288 6.60666 274.082 0 291.805 0C300.876 0 312.726 2.41195 319.883 9.28076C328.954 17.7488 328.089 29.0483 328.089 41.344V70.3922C328.089 79.1225 331.707 82.9501 335.115 87.6691C336.321 89.347 336.583 91.3657 335.062 92.6241C331.261 95.7964 324.497 101.695 320.774 104.998L320.722 104.946Z" fill="white"/>
<path d="M55.2883 59.7583V55.7209C41.8128 55.7209 27.5771 58.6048 27.5771 74.4922C27.5771 82.5407 31.7456 87.9938 38.9028 87.9938C44.1461 87.9938 48.8389 84.7692 51.8015 79.5258C55.4718 73.0764 55.2883 67.0203 55.2883 59.7583ZM74.0858 105.192C72.8536 106.293 71.0708 106.372 69.6813 105.638C63.4942 100.499 62.3931 98.1135 58.9849 93.211C48.7603 103.645 41.5245 106.765 28.2587 106.765C12.581 106.765 0.364014 97.0911 0.364014 77.7168C0.364014 62.5897 8.56988 52.2865 20.2364 47.2529C30.3561 42.796 44.487 42.0095 55.2883 40.7773V38.3653C55.2883 33.9347 55.6291 28.6913 53.0337 24.8637C50.7528 21.4293 46.4008 20.0136 42.5731 20.0136C35.4684 20.0136 29.1239 23.6577 27.5771 31.2081C27.2625 32.886 26.0303 34.5377 24.3524 34.6163L6.2628 32.6763C4.74222 32.3355 3.06434 31.1033 3.48381 28.77C7.65229 6.85271 27.446 0.246052 45.1686 0.246052C54.2396 0.246052 66.0896 2.658 73.2468 9.52681C82.3179 17.9949 81.4527 29.2943 81.4527 41.59V70.6383C81.4527 79.3685 85.0706 83.1961 88.4788 87.9152C89.6848 89.5931 89.947 91.6118 88.4264 92.8702C84.6249 96.0424 77.861 101.941 74.1382 105.245L74.0858 105.192Z" fill="white"/>
</svg>
